<svg width="32" height="32" viewBox="0 0 32 32" fill="none" xmlns="http://www.w3.org/2000/svg">
<path fill-rule="evenodd" clip-rule="evenodd" d="M15.9923 1.4917V3.10594L15.1238 3.1716C14.6425 3.2099 13.9233 3.30293 13.5305 3.37954C13.1322 3.46162 12.4739 3.63672 12.0645 3.76805C11.6551 3.89938 10.9913 4.1675 10.5985 4.35355C10.2002 4.54507 9.6691 4.82961 9.40909 4.9883C9.14908 5.14699 8.71204 5.44795 8.44097 5.65041C8.16436 5.85835 7.69413 6.25233 7.3954 6.53688C7.09113 6.81595 6.64856 7.28107 6.41068 7.56561C6.16726 7.85015 5.79661 8.34263 5.58086 8.66001C5.37064 8.97739 5.01658 9.59025 4.7953 10.028C4.57401 10.4658 4.28081 11.1662 4.14251 11.5875C3.99867 12.0089 3.82164 12.66 3.74419 13.0376C3.66674 13.4152 3.57823 14.0061 3.55057 14.3509C3.51738 14.6956 3.48972 15.2155 3.48972 15.5C3.48972 15.7845 3.51738 16.3044 3.55057 16.6491C3.57823 16.9939 3.66674 17.5794 3.74419 17.9515C3.81611 18.3181 3.99314 18.9692 4.13697 19.4015C4.28081 19.8283 4.57401 20.5342 4.7953 20.972C5.01658 21.4098 5.37064 22.0226 5.58086 22.34C5.79661 22.6574 6.16726 23.1498 6.41068 23.4344C6.64856 23.7189 7.09113 24.1841 7.3954 24.4631C7.69413 24.7422 8.16436 25.1417 8.44097 25.3496C8.71204 25.552 9.14908 25.8475 9.40909 26.0117C9.6691 26.1704 10.2002 26.4549 10.5985 26.6465C10.9913 26.8325 11.6551 27.1006 12.0645 27.232C12.4739 27.3633 13.1322 27.5384 13.5305 27.615C13.9233 27.6916 14.5208 27.7792 14.8582 27.812C15.1902 27.8393 15.7046 27.8667 15.9923 27.8667C16.28 27.8667 16.8055 27.8393 17.1541 27.8065C17.5026 27.7792 18.1001 27.6916 18.4818 27.615C18.8635 27.5384 19.5107 27.3688 19.9201 27.232C20.3295 27.1006 20.9878 26.8325 21.3861 26.6465C21.7789 26.4549 22.3155 26.1704 22.5755 26.0117C22.8356 25.853 23.2671 25.552 23.5437 25.3496C23.8147 25.1471 24.2905 24.7477 24.5892 24.4686C24.888 24.1841 25.3361 23.7189 25.574 23.4344C25.8174 23.1498 26.188 22.6574 26.4038 22.34C26.614 22.0226 26.9681 21.4098 27.1893 20.972C27.4106 20.5342 27.7038 19.8338 27.8421 19.4125C27.9804 18.9911 28.163 18.34 28.2349 17.9624C28.3124 17.5848 28.4064 16.9556 28.4451 16.567C28.4839 16.1402 28.4949 15.5219 28.4728 15.0349C28.4562 14.5862 28.3898 13.9186 28.3345 13.5574C28.2736 13.1963 28.163 12.6655 28.0855 12.381C28.0081 12.0964 27.8698 11.6368 27.7757 11.3686C27.6817 11.095 27.4272 10.5205 27.2115 10.0827C27.0012 9.64497 26.6417 9.01569 26.4204 8.68737C26.1991 8.35358 25.8063 7.83921 25.5574 7.53825C25.148 7.06219 25.0927 7.00747 25.0761 7.12785C25.0705 7.20446 25.0982 7.64769 25.1369 8.11281C25.1812 8.57793 25.2033 8.97191 25.1922 8.98833C25.1756 9.00475 24.8105 9.04305 24.3846 9.07588C23.953 9.11418 23.5935 9.13607 23.5824 9.1306C23.5713 9.1306 23.4717 8.09639 23.3611 6.84331C23.2505 5.59022 23.1785 4.54507 23.2007 4.51771C23.2283 4.49582 24.2794 4.38638 25.5352 4.28242C26.7966 4.17845 27.8366 4.10184 27.8477 4.11826C27.8643 4.13467 27.903 4.5013 27.9362 4.93905C27.9749 5.37681 27.997 5.73797 27.986 5.73797C27.9749 5.74344 27.6098 5.77627 27.1672 5.8091C26.7246 5.84741 26.354 5.88571 26.3374 5.89665C26.3208 5.91307 26.4204 6.03892 26.5587 6.1812C26.697 6.32894 26.9736 6.65179 27.1783 6.90897C27.3774 7.16616 27.7094 7.63127 27.9196 7.94865C28.1243 8.26603 28.4617 8.857 28.6664 9.26193C28.8711 9.66686 29.1256 10.2359 29.2307 10.5205C29.3413 10.805 29.5018 11.2975 29.5958 11.6149C29.6843 11.9323 29.8116 12.4357 29.8724 12.7366C29.9333 13.0376 30.0107 13.4808 30.0494 13.7216C30.0826 13.9624 30.1269 14.6409 30.138 15.2264C30.1601 16.0253 30.1435 16.474 30.0771 17.0048C30.0273 17.3933 29.9222 18.0116 29.8503 18.3728C29.7784 18.7339 29.6124 19.3468 29.4852 19.7408C29.3579 20.1293 29.1311 20.7367 28.9817 21.0814C28.8324 21.4262 28.5724 21.957 28.4009 22.2579C28.2294 22.5589 27.9528 23.013 27.7757 23.2702C27.6042 23.5274 27.2834 23.9542 27.0621 24.2278C26.8463 24.496 26.3872 24.9994 26.0442 25.3441C25.7067 25.6834 25.1756 26.1649 24.8714 26.4057C24.5671 26.6464 24.0416 27.024 23.7096 27.2429C23.3722 27.4563 22.8411 27.7682 22.5202 27.9378C22.1994 28.102 21.6406 28.3537 21.2755 28.5015C20.9104 28.6437 20.335 28.8407 20.0031 28.9337C19.6656 29.0322 19.1954 29.1526 18.952 29.2019C18.7086 29.2511 18.172 29.3387 17.7626 29.3989C17.2204 29.4809 16.7336 29.5083 15.9923 29.5083C15.2399 29.5083 14.7642 29.4809 14.1944 29.3934C13.7684 29.3332 13.182 29.2292 12.8943 29.169C12.6067 29.1088 12.059 28.9611 11.6773 28.8407C11.2955 28.7203 10.7091 28.5015 10.3772 28.3647C10.0398 28.2224 9.50867 27.9597 9.1878 27.7846C8.86694 27.6095 8.39671 27.3304 8.1367 27.1553C7.87669 26.9857 7.43965 26.6683 7.16858 26.4495C6.89197 26.236 6.38855 25.7819 6.04002 25.4426C5.69703 25.1088 5.21021 24.5835 4.96679 24.2825C4.72338 23.9816 4.38039 23.5274 4.20889 23.2702C4.0374 23.013 3.76632 22.5808 3.61142 22.3126C3.45652 22.039 3.21311 21.563 3.07481 21.2456C2.93097 20.9282 2.70969 20.3646 2.57691 19.987C2.44968 19.6095 2.27818 19.0185 2.1952 18.6738C2.11775 18.329 2.00157 17.6888 1.94072 17.251C1.86327 16.7093 1.83008 16.1621 1.83008 15.5274C1.83008 14.92 1.86327 14.3235 1.93519 13.8037C1.99604 13.3659 2.10668 12.7148 2.18967 12.3536C2.27265 11.9925 2.44968 11.3905 2.57691 11.013C2.70969 10.6354 2.93097 10.0718 3.07481 9.75441C3.21311 9.43703 3.45652 8.9555 3.61142 8.68737C3.76632 8.41377 4.0374 7.98695 4.20889 7.72977C4.38039 7.47259 4.72338 7.01841 4.96679 6.71745C5.21021 6.41649 5.69703 5.89118 6.04002 5.55739C6.38855 5.21813 6.89197 4.76395 7.16858 4.55054C7.43965 4.33166 7.87669 4.01429 8.1367 3.84466C8.39671 3.66955 8.85588 3.39595 9.16014 3.22632C9.46441 3.05669 10.001 2.79951 10.3495 2.65176C10.6981 2.50402 11.2955 2.27967 11.6773 2.15928C12.059 2.0389 12.6288 1.88568 12.9496 1.81455C13.2705 1.74888 13.8182 1.65039 14.1667 1.60114C14.5152 1.54642 15.0685 1.50264 15.9923 1.4917ZM15.1625 6.85425V8.76945H16.8221V7.81185C16.8221 7.08408 16.8387 6.85425 16.8941 6.85425C16.9272 6.85425 17.1817 6.89256 17.4583 6.93633C17.7294 6.98011 18.172 7.0786 18.443 7.15521C18.7086 7.23182 19.1567 7.39051 19.4333 7.51089C19.7154 7.63127 20.1469 7.84468 20.3904 7.98695C20.6338 8.12375 21.0044 8.36452 21.2202 8.52321C21.4304 8.67643 21.7789 8.96097 21.9891 9.15796C22.1994 9.34948 22.5258 9.69422 22.7138 9.91857C22.9019 10.1429 23.2062 10.5478 23.3832 10.8214C23.5603 11.0896 23.8092 11.5328 23.9364 11.8064C24.0692 12.0745 24.2462 12.5178 24.3348 12.7914C24.4233 13.0595 24.5394 13.4808 24.5837 13.7216C24.6335 13.9624 24.6888 14.2743 24.7331 14.6792H22.7968V16.3208H24.7331L24.7054 16.578C24.6888 16.7257 24.6335 17.0376 24.5837 17.2784C24.5394 17.5192 24.4233 17.935 24.3348 18.2086C24.2462 18.4768 24.0692 18.92 23.9364 19.1936C23.8092 19.4617 23.5603 19.905 23.3832 20.1786C23.2062 20.4467 22.9019 20.8571 22.7138 21.0814C22.5202 21.3058 22.2326 21.6177 22.0666 21.7709C21.9062 21.9241 21.6517 22.1485 21.4968 22.2689C21.3474 22.3892 20.9934 22.6355 20.7223 22.8106C20.4457 22.9857 19.9976 23.2319 19.7265 23.3578C19.4499 23.4891 19.0018 23.6642 18.7307 23.7518C18.4541 23.8393 18.0337 23.9542 17.7903 23.998C17.5468 24.0473 17.2315 24.102 16.8221 24.1457V22.2306H15.1625V24.1457L14.9025 24.1184C14.7531 24.102 14.4378 24.0473 14.1944 23.998C13.951 23.9542 13.525 23.8393 13.2539 23.7518C12.9773 23.6642 12.5181 23.4836 12.2305 23.3468C11.9428 23.21 11.467 22.9419 11.1794 22.7559C10.8917 22.5643 10.4547 22.2415 10.2168 22.0336C9.97337 21.8256 9.60271 21.459 9.39249 21.2182C9.17674 20.9775 8.85034 20.5452 8.65672 20.2606C8.46863 19.9761 8.19755 19.5055 8.05925 19.221C7.92095 18.9364 7.73839 18.4768 7.64987 18.2086C7.56136 17.935 7.44518 17.5192 7.40093 17.2784C7.35114 17.0376 7.29582 16.7257 7.25156 16.3208H9.1878V14.6792H7.25156L7.27922 14.4165C7.29582 14.2743 7.35114 13.9624 7.40093 13.7216C7.44518 13.4808 7.56136 13.0595 7.64987 12.7914C7.73839 12.5178 7.92095 12.0636 8.05925 11.779C8.19755 11.4945 8.46863 11.0239 8.65672 10.7394C8.85034 10.4548 9.17674 10.0225 9.39249 9.78177C9.60271 9.541 9.97337 9.17438 10.2168 8.96644C10.4547 8.75851 10.8751 8.44113 11.1517 8.26055C11.4228 8.08545 11.8156 7.85563 12.0258 7.75166C12.2305 7.64769 12.579 7.49447 12.8003 7.40692C13.016 7.31937 13.3867 7.19899 13.6135 7.13332C13.8403 7.07313 14.2276 6.98558 14.471 6.9418C14.7144 6.89803 14.9689 6.85972 15.1625 6.85425ZM15.1348 15.1388L12.6343 17.2237C13.1599 17.853 13.3977 18.132 13.5084 18.2579L13.7075 18.4822L16.7945 15.9049L16.8221 10.5205H15.1625L15.1348 15.1388Z" fill="#016EE8"/>
</svg>
